
<svg xmlns="http://www.w3.org/2000/svg" version="1.1" viewBox="0.00 0.00 67.00 75.00">
<path fill="#ffffff" d="
  M 43.98 49.25
  A 0.45 0.44 67.4 0 0 44.29 48.49
  L 17.01 20.84
  Q 16.62 20.44 16.72 19.88
  L 17.12 17.66
  Q 17.27 16.89 17.82 17.45
  L 40.71 40.33
  A 0.60 0.59 42.8 0 0 41.59 40.30
  L 46.63 34.38
  Q 47.06 33.87 46.71 33.30
  Q 41.59 25.00 30.74 26.50
  Q 28.88 26.76 28.44 24.45
  Q 28.36 24.00 28.80 23.88
  Q 40.74 20.55 48.21 30.07
  Q 48.85 30.90 49.53 30.10
  C 50.89 28.48 53.36 24.30 52.87 21.91
  A 0.94 0.94 0.0 0 0 51.89 21.17
  Q 48.42 21.41 45.63 23.46
  Q 45.15 23.81 44.63 23.54
  L 42.60 22.54
  Q 41.98 22.23 42.51 21.79
  C 45.16 19.55 54.36 13.38 57.75 15.68
  C 61.97 18.53 53.17 30.88 50.66 33.93
  A 0.99 0.96 59.5 0 0 50.46 34.76
  C 53.12 47.77 43.24 59.43 29.71 55.53
  A 0.95 0.94 -56.8 0 0 28.86 55.71
  C 25.85 58.18 14.09 66.52 11.10 63.40
  C 7.79 59.94 14.71 50.07 16.68 47.40
  Q 17.08 46.87 17.37 47.47
  L 18.54 49.89
  A 0.86 0.86 0.0 0 1 18.46 50.78
  Q 16.59 53.31 16.20 56.43
  A 1.50 1.50 0.0 0 0 18.11 58.06
  Q 22.08 56.87 25.51 54.50
  Q 26.10 54.10 25.53 53.67
  Q 15.29 46.12 18.99 33.56
  A 0.49 0.49 0.0 0 1 19.67 33.25
  C 20.92 33.85 21.61 35.01 21.39 36.46
  Q 19.92 46.47 28.44 51.76
  Q 28.95 52.08 29.42 51.68
  L 35.52 46.49
  A 0.55 0.55 0.0 0 0 35.55 45.68
  L 19.42 29.54
  Q 19.15 29.27 19.11 28.89
  L 18.75 25.11
  A 0.28 0.27 19.7 0 1 19.22 24.89
  Q 31.44 36.92 43.40 49.20
  A 0.17 0.14 62.9 0 0 43.51 49.25
  L 43.98 49.25
  Z
  M 48.31 39.00
  A 0.71 0.71 0.0 0 0 47.07 38.40
  L 43.65 42.34
  A 0.71 0.71 0.0 0 0 43.68 43.31
  L 45.92 45.54
  A 0.71 0.71 0.0 0 0 47.11 45.17
  L 48.31 39.00
  Z
  M 34.21 53.29
  Q 37.57 53.16 40.64 51.76
  Q 41.32 51.45 40.79 50.92
  L 38.45 48.58
  Q 38.03 48.15 37.58 48.55
  L 33.70 52.02
  Q 32.19 53.37 34.21 53.29
  Z"
/>
</svg>
